# xmcd CD database file
#
# Track frame offsets:
#	150
#	12330
#	24256
#	40019
#	57533
#	71540
#	89223
#	98212
#	115385
#	124241
#	137111
#	151273
#	160946
#	176322
#	186014
#	197795
#	208874
#	222877
#
# Disc length: 3179 seconds
#
# Revision: 2
# Processed by: cddbd v1.5.2PL0 Copyright (c) Steve Scherf et al.
# Submitted via: CDex 1.70beta2
#
DISCID=030c6912
DTITLE=Rex Allen Jr - It's Finally Christmas
DYEAR=2008
DGENRE=Country
TTITLE0=It's Beginning To Look A Lot Like Christmas
TTITLE1=Jingle Bells
TTITLE2=Away In A Manger
TTITLE3=We Three Kings
TTITLE4=Rudolp The Red Nose Reindeer
TTITLE5=Have Yourself A Merry Little Christmas
TTITLE6=Frosty The Snowman
TTITLE7=Oh Come All Ye Faithful
TTITLE8=Here Comes Santa Claus
TTITLE9=The First Noel
TTITLE10=Silent Night
TTITLE11=Jinle Bell Rock
TTITLE12=God Rest Ye Merry Gentlemen
TTITLE13=Winter Wonderland
TTITLE14=Do You Hear What I Hear?
TTITLE15=The Christmas Song
TTITLE16=White Christmas
TTITLE17=Auld Lang Syne
EXTD=YEAR: 2008
EXTT0=
EXTT1=
EXTT2=
EXTT3=
EXTT4=
EXTT5=
EXTT6=
EXTT7=
EXTT8=
EXTT9=
EXTT10=
EXTT11=
EXTT12=
EXTT13=
EXTT14=
EXTT15=
EXTT16=
EXTT17=
PLAYORDER=
